<mxfile type="github" version="12.1.5" host="www.draw.io" modified="2019-10-25T09:35:27.884Z" agent="Mozilla/5.0 (Windows NT 10.0; Win64; x64) AppleWebKit/537.36 (KHTML, like Gecko) Chrome/64.0.3282.140 Safari/537.36 Edge/18.17763" etag="3_h8S1vq3cUd-7IKbFik" pages="1">
  <diagram id="tsJ4FVzS7xN1H9VnqtXZ" name="Page-1">
    <mxGraphModel grid="1" dx="1488" dy="818" gridSize="10" guides="1" tooltips="1" connect="1" arrows="1" fold="1" page="1" pageScale="1" pageWidth="827" pageHeight="1169" math="0" shadow="0">
      <root>
        <mxCell id="0"/>
        <mxCell id="1" parent="0"/>
        <mxCell id="SW_OqwKcot6XCAKr860w-1" value="Invoice H5 Page/E-Invoice Mode" parent="1" vertex="1" style="rounded=1;whiteSpace=wrap;html=1;fillColor=#dae8fc;strokeColor=#6c8ebf;">
          <mxGeometry as="geometry" height="77" width="200" y="368" x="60"/>
        </mxCell>
        <mxCell id="SW_OqwKcot6XCAKr860w-6" value="" parent="1" vertex="1" style="rounded=1;whiteSpace=wrap;html=1;dashed=1;">
          <mxGeometry as="geometry" height="370" width="800" y="260" x="390"/>
        </mxCell>
        <mxCell id="SW_OqwKcot6XCAKr860w-7" value="&lt;h1&gt;Mid Layer Platform&lt;/h1&gt;&lt;p&gt;Lorem ipsum dolor sit amet, consectetur adipisicing elit, sed do eiusmod tempor incididunt ut labore et dolore magna aliqua.&lt;/p&gt;" parent="1" vertex="1" style="text;html=1;strokeColor=none;fillColor=none;spacing=5;spacingTop=-20;whiteSpace=wrap;overflow=hidden;rounded=0;dashed=1;">
          <mxGeometry as="geometry" height="120" width="250" y="270" x="410"/>
        </mxCell>
        <mxCell id="SW_OqwKcot6XCAKr860w-9" value="Common Service Center - API Gate way" parent="1" vertex="1" style="rounded=1;whiteSpace=wrap;html=1;">
          <mxGeometry as="geometry" height="65" width="245" y="385" x="415"/>
        </mxCell>
        <mxCell id="SW_OqwKcot6XCAKr860w-11" value="Invoice&amp;nbsp; Center " parent="1" vertex="1" style="rounded=1;whiteSpace=wrap;html=1;">
          <mxGeometry as="geometry" height="65" width="205" y="385" x="830"/>
        </mxCell>
        <mxCell id="SW_OqwKcot6XCAKr860w-14" value="Order Center " parent="1" vertex="1" style="rounded=1;whiteSpace=wrap;html=1;">
          <mxGeometry as="geometry" height="65" width="245" y="520" x="790"/>
        </mxCell>
        <mxCell id="SW_OqwKcot6XCAKr860w-15" value="" parent="1" vertex="1" style="rounded=1;whiteSpace=wrap;html=1;dashed=1;">
          <mxGeometry as="geometry" height="370" width="330" y="260" x="1240"/>
        </mxCell>
        <mxCell id="SW_OqwKcot6XCAKr860w-16" value="&lt;h1&gt;Backend Systems&lt;/h1&gt;&lt;p&gt;Lorem ipsum dolor sit amet, consectetur adipisicing elit, sed do eiusmod tempor incididunt ut labore et dolore magna aliqua.&lt;/p&gt;" parent="1" vertex="1" style="text;html=1;strokeColor=none;fillColor=none;spacing=5;spacingTop=-20;whiteSpace=wrap;overflow=hidden;rounded=0;dashed=1;">
          <mxGeometry as="geometry" height="120" width="250" y="265" x="1270"/>
        </mxCell>
        <mxCell id="SW_OqwKcot6XCAKr860w-19" value="E - Fapiao" parent="1" vertex="1" style="rounded=1;whiteSpace=wrap;html=1;">
          <mxGeometry as="geometry" height="65" width="245" y="387" x="1284"/>
        </mxCell>
        <mxCell id="SW_OqwKcot6XCAKr860w-20" value="Mid Layer Platform Invoice Business Flow Arch." parent="1" vertex="1" style="text;html=1;strokeColor=none;fillColor=none;align=center;verticalAlign=middle;whiteSpace=wrap;rounded=0;fontSize=45;">
          <mxGeometry as="geometry" height="50" width="1070" y="90" x="270"/>
        </mxCell>
        <mxCell id="SW_OqwKcot6XCAKr860w-21" value="" parent="1" style="shape=flexArrow;endArrow=classic;html=1;fontSize=45;exitX=0.997;exitY=0.629;exitDx=0;exitDy=0;exitPerimeter=0;" target="SW_OqwKcot6XCAKr860w-9" source="SW_OqwKcot6XCAKr860w-1" edge="1">
          <mxGeometry as="geometry" height="50" width="50" relative="1">
            <mxPoint as="sourcePoint" y="414" x="260"/>
            <mxPoint as="targetPoint" y="414" x="340"/>
          </mxGeometry>
        </mxCell>
        <mxCell id="SW_OqwKcot6XCAKr860w-25" value="" parent="1" style="shape=flexArrow;endArrow=classic;html=1;fontSize=45;exitX=0.997;exitY=0.629;exitDx=0;exitDy=0;exitPerimeter=0;" target="SW_OqwKcot6XCAKr860w-11" edge="1">
          <mxGeometry as="geometry" height="50" width="50" relative="1">
            <mxPoint as="sourcePoint" y="416.433" x="659.9000000000001"/>
            <mxPoint as="targetPoint" y="417" x="790"/>
          </mxGeometry>
        </mxCell>
        <mxCell id="SW_OqwKcot6XCAKr860w-26" value="" parent="1" style="shape=flexArrow;endArrow=classic;startArrow=classic;html=1;fontSize=45;" edge="1">
          <mxGeometry as="geometry" height="50" width="50" relative="1">
            <mxPoint as="sourcePoint" y="520" x="911.5"/>
            <mxPoint as="targetPoint" y="450" x="911.5"/>
          </mxGeometry>
        </mxCell>
        <mxCell id="SW_OqwKcot6XCAKr860w-28" value="" parent="1" style="shape=flexArrow;endArrow=classic;startArrow=classic;html=1;fontSize=45;entryX=0;entryY=0.5;entryDx=0;entryDy=0;" target="SW_OqwKcot6XCAKr860w-19" edge="1">
          <mxGeometry as="geometry" height="50" width="50" relative="1">
            <mxPoint as="sourcePoint" y="417.5" x="1030"/>
            <mxPoint as="targetPoint" y="617.5" x="1428.5"/>
          </mxGeometry>
        </mxCell>
        <mxCell id="SW_OqwKcot6XCAKr860w-33" value="Business relationship" parent="1" vertex="1" style="text;strokeColor=none;fillColor=none;html=1;fontSize=12;fontStyle=0;verticalAlign=middle;align=center;">
          <mxGeometry as="geometry" height="30" width="130" y="385" x="1080"/>
        </mxCell>
        <mxCell id="SW_OqwKcot6XCAKr860w-34" value="Business relationship" parent="1" vertex="1" style="text;strokeColor=none;fillColor=none;html=1;fontSize=12;fontStyle=0;verticalAlign=middle;align=center;">
          <mxGeometry as="geometry" height="30" width="130" y="381" x="261"/>
        </mxCell>
        <mxCell id="SW_OqwKcot6XCAKr860w-36" value="Business relationship" parent="1" vertex="1" style="text;strokeColor=none;fillColor=none;html=1;fontSize=12;fontStyle=0;verticalAlign=middle;align=center;">
          <mxGeometry as="geometry" height="30" width="130" y="385" x="675"/>
        </mxCell>
        <mxCell id="SW_OqwKcot6XCAKr860w-37" value="Business relationship" parent="1" vertex="1" style="text;strokeColor=none;fillColor=none;html=1;fontSize=12;fontStyle=0;verticalAlign=middle;align=center;">
          <mxGeometry as="geometry" height="30" width="130" y="470" x="765"/>
        </mxCell>
      </root>
    </mxGraphModel>
  </diagram>
</mxfile>
